<?xml version="1.0" encoding="UTF-8"?>
<svg version="1.1" xmlns="http://www.w3.org/2000/svg" width="400" height="400">
<path d="M0 0 C132 0 264 0 400 0 C400 132 400 264 400 400 C268 400 136 400 0 400 C0 268 0 136 0 0 Z " fill="#000000" transform="translate(0,0)"/>
<path d="M0 0 C0.33 0 0.66 0 1 0 C1.06316406 0.91136719 1.12632813 1.82273438 1.19140625 2.76171875 C4.56260869 38.42549188 25.22479102 62.37940933 49.55395508 86.69921875 C51.11547311 88.26373363 52.67678752 89.82845177 54.23791504 91.39335632 C58.45203695 95.61626157 62.66934937 99.83596615 66.88754487 104.05480194 C69.52395027 106.69192022 72.15964151 109.3297501 74.79508018 111.96783447 C83.51804626 120.69955494 92.2430526 129.42922897 100.97077326 138.15619707 C101.43956603 138.62494989 101.90835881 139.09370271 102.39135742 139.57666016 C102.86072642 140.04598827 103.33009541 140.51531638 103.8136877 140.99886656 C111.44176733 148.62653861 119.06482919 156.25920388 126.68566827 163.89410937 C134.5244831 171.74727827 142.36710312 179.59663185 150.21343917 187.44228649 C154.61329413 191.84188626 159.01157538 196.24303182 163.4060154 200.64804077 C167.53106689 204.78274457 171.66085331 208.91265862 175.79438019 213.03888893 C177.31187568 214.55533552 178.82765645 216.0735002 180.34161186 217.59348106 C182.40425909 219.66380693 184.47293796 221.72790981 186.54328918 223.79052734 C187.14415952 224.39654124 187.74502986 225.00255514 188.36410838 225.6269331 C188.92038218 226.1786081 189.47665599 226.73028311 190.04978657 227.29867554 C190.52639329 227.77549963 191.00300002 228.25232372 191.49404937 228.74359703 C194.1532423 230.96214113 196.4462007 231.92776531 199.875 232.375 C206.34220387 231.59893554 210.77985354 226.50674114 215.17245483 222.06132507 C215.76405195 221.47073124 216.35564906 220.88013741 216.96517336 220.2716468 C218.93647922 218.30128975 220.90056371 216.32389186 222.86474609 214.34643555 C224.2807665 212.92821272 225.69723626 211.51043843 227.11412048 210.09307861 C230.16010014 207.04416927 233.20290017 203.99213412 236.24326706 200.93762779 C241.05478412 196.10380748 245.87341313 191.27711896 250.69302368 186.45137024 C258.31923662 178.81378065 265.94076303 171.17153405 273.56025565 163.52724057 C287.19522811 149.84795723 300.83573506 136.17419839 314.48153555 122.50571662 C319.26720281 117.71166327 324.05004623 112.91481568 328.83060813 108.11567152 C331.8110937 105.12450479 334.79364005 102.13539911 337.77668953 99.14678955 C339.15458491 97.76543844 340.53160853 96.38321709 341.90767097 95.00004005 C354.52699523 82.31693889 354.52699523 82.31693889 360.4268589 77.35192585 C381.35958069 59.36276536 392.66847514 35.60215181 398 9 C398.20753906 7.97390625 398.41507812 6.9478125 398.62890625 5.890625 C398.75136719 5.26671875 398.87382812 4.6428125 399 4 C399.33 4 399.66 4 400 4 C400 87.49 400 170.98 400 257 C268 257 136 257 0 257 C0 172.19 0 87.38 0 0 Z " fill="#FEFEFE" transform="translate(0,143)"/>
<path d="M0 0 C132 0 264 0 400 0 C400 40.26 400 80.52 400 122 C399.67 122 399.34 122 399 122 C398.88519287 121.41734375 398.77038574 120.8346875 398.65209961 120.234375 C392.60322754 90.16435927 379.16941096 63.55071594 353.75 45.25 C334.21413948 32.43466089 313.71572323 25.82483697 290.3125 25.8125 C289.10916016 25.80025391 287.90582031 25.78800781 286.66601562 25.77539062 C258.38377283 25.72955231 233.45799646 36.83123051 213 56 C211.54720196 57.27715752 210.08927336 58.54851542 208.625 59.8125 C205.97879985 62.1158726 203.43160974 64.46707319 201 67 C196.98769416 65.4139591 194.46376888 62.56518507 191.5625 59.5 C175.41393752 43.03722464 156.29108777 32.74872594 134 27 C132.99324219 26.73445313 131.98648438 26.46890625 130.94921875 26.1953125 C103.44610907 20.38423578 74.57286094 27.55685232 51 42 C46.87504044 44.85305546 42.91735303 47.86958938 39 51 C38.34386719 51.50144531 37.68773437 52.00289062 37.01171875 52.51953125 C31.4993526 56.91675206 27.29388053 62.44862589 23 68 C22.401875 68.74765625 21.80375 69.4953125 21.1875 70.265625 C11.51096528 83.07807375 4.84802928 99.25354424 2.3125 115.0625 C2.11817383 116.21782227 2.11817383 116.21782227 1.91992188 117.39648438 C1.60686054 119.2632575 1.30248089 121.13148331 1 123 C0.67 123 0.34 123 0 123 C0 82.41 0 41.82 0 0 Z " fill="#FEFEFE" transform="translate(0,0)"/>
</svg>
