<?xml version="1.0" encoding="UTF-8"?>
<svg version="1.1" xmlns="http://www.w3.org/2000/svg" width="400" height="400">
<path d="M0 0 C7.68879539 6.23703314 14.64341733 13.29528154 21.5234375 20.3984375 C25.71908762 18.78626645 28.32522194 15.65147944 31.3359375 12.4609375 C52.01322806 -8.7112647 79.63935444 -21.19281467 109.33496094 -21.95507812 C136.13971706 -22.1692825 161.85977568 -13.91512111 182.5234375 3.3984375 C184.03550781 4.66494141 184.03550781 4.66494141 185.578125 5.95703125 C205.85192312 23.47426186 220.21552062 49.51013739 222.5234375 76.3984375 C223.30600503 90.59877748 223.24192039 104.60843617 219.5234375 118.3984375 C219.19472656 119.62046875 218.86601562 120.8425 218.52734375 122.1015625 C214.23491187 136.30074892 207.34675169 149.27146866 197.5234375 160.3984375 C196.92173076 161.0887739 196.32002401 161.7791103 195.70008373 162.49036598 C188.5474692 170.57615082 180.90882695 178.16131094 173.27661133 185.79052734 C171.74789471 187.32224103 170.21938164 188.85415788 168.6910553 190.38626099 C164.56563877 194.52045995 160.43703275 198.65145904 156.30754304 202.78158903 C153.72539528 205.36444987 151.14396181 207.9480224 148.56278038 210.53184891 C139.55227023 219.55158909 130.53920237 228.56876421 121.52368164 237.58349609 C113.12626477 245.98031083 104.73445715 254.38270283 96.34522611 262.78769529 C89.13074366 270.01524778 81.91241668 277.23894527 74.69107646 284.45964587 C70.3828196 288.76764785 66.07612775 293.0771863 61.77329445 297.39060593 C57.73196624 301.44160755 53.68587522 305.48779047 49.63606834 309.5303154 C48.15166535 311.01367205 46.66896696 312.49873678 45.18811035 313.98563385 C43.16559175 316.01586715 41.13699439 318.03982832 39.10676575 320.06234741 C38.52339394 320.65086278 37.94002213 321.23937815 37.33897239 321.84572732 C32.94005229 326.20785309 28.95120527 330.00686205 22.6484375 331.0234375 C14.96693067 330.61690191 8.77859477 322.94682515 3.66163635 317.79060364 C3.02003333 317.15212059 2.3784303 316.51363755 1.71738476 315.85580653 C-0.41118261 313.7351565 -2.53260036 311.60750217 -4.65405273 309.47973633 C-6.18699521 307.94950657 -7.72036225 306.41970204 -9.25411987 304.89028931 C-13.40549446 300.74800978 -17.55054452 296.59945565 -21.69419742 292.44945359 C-26.0418344 288.09673896 -30.39436525 283.74892237 -34.74610901 279.40031433 C-42.05545127 272.09460773 -49.36057388 264.7847017 -56.66333008 257.47241211 C-65.08809023 249.03678044 -73.5200143 240.60836111 -81.95571941 232.18367559 C-89.21316228 224.93533158 -96.46667158 217.68306851 -103.71695477 210.42756289 C-108.04049295 206.10091772 -112.36534459 201.77560871 -116.6937542 197.45383644 C-120.76702203 193.38637887 -124.83530345 189.31399677 -128.89991379 185.23788834 C-130.38602055 183.74915406 -131.87380023 182.26208744 -133.36343956 180.77688789 C-159.77131649 154.44042389 -177.44922194 127.388801 -177.7890625 89.0859375 C-177.7127714 63.21371674 -169.9321294 37.91755009 -152.4765625 18.3984375 C-151.79078125 17.58246094 -151.105 16.76648437 -150.3984375 15.92578125 C-113.30539141 -27.238249 -45.33304877 -35.03362977 0 0 Z " fill="#010101" transform="translate(177.4765625,45.6015625)"/>
</svg>
